<svg xmlns="http://www.w3.org/2000/svg" xmlns:xlink="http://www.w3.org/1999/xlink" width="1080" zoomAndPan="magnify" viewBox="0 0 810 809.999993" height="1080" preserveAspectRatio="xMidYMid meet" version="1.2"><defs><clipPath id="af89b06f80"><path d="M 103 24.777344 L 707.394531 24.777344 L 707.394531 785.277344 L 103 785.277344 Z M 103 24.777344 "/></clipPath></defs><g id="d73e71de3b"><path style=" stroke:none;fill-rule:nonzero;fill:#fbe2ae;fill-opacity:1;" d="M 701.015625 76.621094 L 701.015625 779.238281 L 178.410156 779.238281 L 178.410156 733.429688 L 631.878906 733.429688 L 631.878906 76.621094 Z M 701.015625 76.621094 "/><path style=" stroke:none;fill-rule:nonzero;fill:#e2ece1;fill-opacity:1;" d="M 631.878906 76.621094 L 631.878906 733.429688 L 109.273438 733.429688 L 109.273438 30.8125 L 631.878906 30.8125 Z M 631.878906 76.621094 "/><path style=" stroke:none;fill-rule:nonzero;fill:#f9b132;fill-opacity:1;" d="M 239.941406 664.683594 C 273.875 664.683594 301.410156 637.339844 301.410156 603.601562 C 301.410156 569.859375 273.875 542.519531 239.941406 542.519531 C 205.945312 542.519531 178.410156 569.859375 178.410156 603.601562 C 178.410156 637.339844 205.945312 664.683594 239.941406 664.683594 Z M 239.941406 511.917969 C 290.839844 511.917969 332.144531 552.960938 332.144531 603.601562 C 332.144531 654.179688 290.839844 695.222656 239.941406 695.222656 C 188.976562 695.222656 147.675781 654.179688 147.675781 603.601562 C 147.675781 552.960938 188.976562 511.917969 239.941406 511.917969 Z M 239.941406 511.917969 "/><path style=" stroke:none;fill-rule:nonzero;fill:#fbc88e;fill-opacity:1;" d="M 239.941406 542.519531 C 273.875 542.519531 301.410156 569.859375 301.410156 603.601562 C 301.410156 637.339844 273.875 664.683594 239.941406 664.683594 C 205.945312 664.683594 178.410156 637.339844 178.410156 603.601562 C 178.410156 569.859375 205.945312 542.519531 239.941406 542.519531 Z M 239.941406 542.519531 "/><path style=" stroke:none;fill-rule:nonzero;fill:#9c9d9c;fill-opacity:1;" d="M 247.609375 191.179688 C 237.34375 191.179688 227.140625 191.179688 216.875 191.179688 L 186.140625 191.179688 C 190.125 177.660156 202.683594 168.304688 216.875 168.304688 C 231.0625 168.304688 243.625 177.660156 247.609375 191.179688 Z M 247.609375 191.179688 "/><path style=" stroke:none;fill-rule:nonzero;fill:#f9b132;fill-opacity:1;" d="M 132.339844 137.703125 L 178.410156 137.703125 C 178.410156 150.378906 168.144531 160.640625 155.40625 160.640625 C 142.664062 160.640625 132.339844 150.378906 132.339844 137.703125 Z M 132.339844 137.703125 "/><path style=" stroke:none;fill-rule:nonzero;fill:#f9b132;fill-opacity:1;" d="M 301.410156 137.703125 C 301.410156 150.378906 291.082031 160.640625 278.34375 160.640625 C 265.601562 160.640625 255.277344 150.378906 255.277344 137.703125 Z M 301.410156 137.703125 "/><path style=" stroke:none;fill-rule:nonzero;fill:#be3a3c;fill-opacity:1;" d="M 231.246094 81.996094 C 229.070312 87.789062 223.457031 91.894531 216.875 91.894531 C 210.292969 91.894531 204.617188 87.789062 202.441406 81.996094 C 201.839844 80.304688 201.476562 78.492188 201.476562 76.621094 C 201.476562 68.171875 208.359375 61.351562 216.875 61.351562 C 225.328125 61.351562 232.210938 68.171875 232.210938 76.621094 C 232.210938 78.492188 231.847656 80.304688 231.246094 81.996094 Z M 231.246094 81.996094 "/><g clip-rule="nonzero" clip-path="url(#af89b06f80)"><path style=" stroke:none;fill-rule:nonzero;fill:#3a322b;fill-opacity:1;" d="M 701.015625 70.597656 L 637.886719 70.597656 L 637.886719 30.8125 C 637.886719 27.480469 635.179688 24.777344 631.847656 24.777344 L 109.273438 24.777344 C 105.941406 24.777344 103.234375 27.480469 103.234375 30.8125 L 103.234375 733.417969 C 103.234375 736.75 105.941406 739.453125 109.273438 739.453125 L 172.402344 739.453125 L 172.402344 779.238281 C 172.402344 782.570312 175.109375 785.277344 178.441406 785.277344 L 701.015625 785.277344 C 704.347656 785.277344 707.054688 782.570312 707.054688 779.238281 L 707.054688 76.632812 C 707.054688 73.304688 704.347656 70.597656 701.015625 70.597656 Z M 115.3125 36.847656 L 625.808594 36.847656 L 625.808594 727.382812 L 115.3125 727.382812 Z M 694.976562 773.203125 L 184.480469 773.203125 L 184.480469 739.453125 L 631.855469 739.453125 C 635.1875 739.453125 637.890625 736.75 637.890625 733.417969 L 637.890625 82.671875 L 694.976562 82.671875 Z M 694.976562 773.203125 "/></g><path style=" stroke:none;fill-rule:nonzero;fill:#3a322b;fill-opacity:1;" d="M 184.480469 137.726562 C 184.480469 137.582031 184.40625 137.460938 184.394531 137.316406 C 184.371094 136.914062 184.269531 136.53125 184.160156 136.140625 C 184.050781 135.742188 183.9375 135.363281 183.75 135 C 183.683594 134.875 183.683594 134.734375 183.609375 134.609375 L 164.316406 102.65625 L 199.847656 89.417969 C 202.574219 93.003906 206.390625 95.664062 210.828125 96.976562 L 210.828125 162.738281 C 196.5625 165.050781 184.46875 175.398438 180.332031 189.484375 C 179.792969 191.308594 180.148438 193.28125 181.292969 194.800781 C 182.425781 196.324219 184.21875 197.222656 186.121094 197.222656 L 247.601562 197.222656 C 249.503906 197.222656 251.296875 196.328125 252.433594 194.800781 C 253.574219 193.28125 253.929688 191.308594 253.394531 189.484375 C 249.257812 175.398438 237.164062 165.050781 222.898438 162.738281 L 222.898438 96.976562 C 227.332031 95.664062 231.15625 93.003906 233.882812 89.417969 L 269.414062 102.65625 L 250.121094 134.609375 C 250.046875 134.734375 250.042969 134.875 249.980469 135 C 249.792969 135.363281 249.683594 135.742188 249.570312 136.140625 C 249.460938 136.539062 249.359375 136.914062 249.335938 137.316406 C 249.324219 137.460938 249.25 137.582031 249.25 137.726562 C 249.25 153.691406 262.304688 166.675781 278.34375 166.675781 C 294.378906 166.675781 307.433594 153.691406 307.433594 137.726562 C 307.433594 137.582031 307.363281 137.460938 307.351562 137.316406 C 307.324219 136.914062 307.222656 136.53125 307.113281 136.140625 C 307.007812 135.742188 306.890625 135.363281 306.703125 135 C 306.636719 134.875 306.636719 134.734375 306.566406 134.609375 L 283.511719 96.417969 C 283.371094 96.191406 283.148438 96.050781 282.984375 95.847656 C 282.761719 95.5625 282.546875 95.304688 282.273438 95.0625 C 281.875 94.710938 281.445312 94.453125 280.980469 94.222656 C 280.789062 94.125 280.65625 93.957031 280.449219 93.878906 L 238.121094 78.105469 C 238.160156 77.605469 238.273438 77.136719 238.273438 76.628906 C 238.273438 64.875 228.671875 55.316406 216.867188 55.316406 C 205.0625 55.316406 195.460938 64.875 195.460938 76.628906 C 195.460938 77.136719 195.578125 77.613281 195.613281 78.105469 L 153.28125 93.878906 C 153.082031 93.949219 152.949219 94.121094 152.761719 94.214844 C 152.289062 94.453125 151.855469 94.710938 151.449219 95.066406 C 151.183594 95.304688 150.96875 95.5625 150.742188 95.839844 C 150.574219 96.058594 150.351562 96.195312 150.210938 96.425781 L 127.160156 134.613281 C 127.085938 134.742188 127.082031 134.878906 127.019531 135.003906 C 126.832031 135.367188 126.722656 135.75 126.609375 136.148438 C 126.5 136.546875 126.398438 136.917969 126.375 137.324219 C 126.363281 137.460938 126.289062 137.582031 126.289062 137.726562 C 126.289062 153.691406 139.335938 166.675781 155.382812 166.675781 C 171.425781 166.675781 184.480469 153.691406 184.480469 137.726562 Z M 278.34375 111.226562 L 290.703125 131.699219 L 265.984375 131.699219 Z M 278.34375 154.605469 C 271.101562 154.605469 264.902344 150.09375 262.449219 143.765625 L 294.234375 143.765625 C 291.785156 150.101562 285.582031 154.605469 278.34375 154.605469 Z M 238.015625 185.152344 L 195.710938 185.152344 C 200.503906 178.511719 208.347656 174.308594 216.863281 174.308594 C 225.375 174.308594 233.21875 178.515625 238.015625 185.152344 Z M 216.863281 67.394531 C 222.007812 67.394531 226.191406 71.539062 226.191406 76.632812 C 226.191406 81.730469 222.007812 85.875 216.863281 85.875 C 211.71875 85.875 207.53125 81.730469 207.53125 76.632812 C 207.53125 71.539062 211.71875 67.394531 216.863281 67.394531 Z M 167.742188 131.691406 L 143.027344 131.691406 L 155.386719 111.21875 Z M 139.496094 143.765625 L 171.273438 143.765625 C 168.824219 150.09375 162.621094 154.605469 155.382812 154.605469 C 148.148438 154.605469 141.945312 150.101562 139.496094 143.765625 Z M 139.496094 143.765625 "/><path style=" stroke:none;fill-rule:nonzero;fill:#3a322b;fill-opacity:1;" d="M 370.5625 105.582031 L 524.257812 105.582031 C 527.59375 105.582031 530.296875 102.878906 530.296875 99.546875 C 530.296875 96.214844 527.59375 93.511719 524.257812 93.511719 L 370.5625 93.511719 C 367.230469 93.511719 364.527344 96.214844 364.527344 99.546875 C 364.527344 102.878906 367.230469 105.582031 370.5625 105.582031 Z M 370.5625 105.582031 "/><path style=" stroke:none;fill-rule:nonzero;fill:#3a322b;fill-opacity:1;" d="M 347.511719 159.039062 L 585.746094 159.039062 C 589.078125 159.039062 591.785156 156.335938 591.785156 153.003906 C 591.785156 149.671875 589.078125 146.96875 585.746094 146.96875 L 347.511719 146.96875 C 344.175781 146.96875 341.472656 149.671875 341.472656 153.003906 C 341.472656 156.335938 344.171875 159.039062 347.511719 159.039062 Z M 347.511719 159.039062 "/><path style=" stroke:none;fill-rule:nonzero;fill:#3a322b;fill-opacity:1;" d="M 262.976562 238.613281 L 170.753906 238.613281 C 167.421875 238.613281 164.714844 241.320312 164.714844 244.652344 C 164.714844 247.980469 167.421875 250.6875 170.753906 250.6875 L 262.976562 250.6875 C 266.308594 250.6875 269.015625 247.980469 269.015625 244.652344 C 269.015625 241.320312 266.308594 238.613281 262.976562 238.613281 Z M 262.976562 238.613281 "/><path style=" stroke:none;fill-rule:nonzero;fill:#3a322b;fill-opacity:1;" d="M 203.136719 290.472656 C 203.136719 293.804688 205.84375 296.507812 209.175781 296.507812 L 570.367188 296.507812 C 573.699219 296.507812 576.40625 293.804688 576.40625 290.472656 C 576.40625 287.140625 573.699219 284.4375 570.367188 284.4375 L 209.175781 284.4375 C 205.84375 284.4375 203.136719 287.136719 203.136719 290.472656 Z M 203.136719 290.472656 "/><path style=" stroke:none;fill-rule:nonzero;fill:#3a322b;fill-opacity:1;" d="M 170.753906 357.601562 L 570.375 357.601562 C 573.707031 357.601562 576.410156 354.898438 576.410156 351.566406 C 576.410156 348.234375 573.707031 345.53125 570.375 345.53125 L 170.753906 345.53125 C 167.421875 345.53125 164.714844 348.234375 164.714844 351.566406 C 164.714844 354.898438 167.414062 357.601562 170.753906 357.601562 Z M 170.753906 357.601562 "/><path style=" stroke:none;fill-rule:nonzero;fill:#3a322b;fill-opacity:1;" d="M 170.753906 426.335938 L 570.375 426.335938 C 573.707031 426.335938 576.410156 423.632812 576.410156 420.300781 C 576.410156 416.96875 573.707031 414.265625 570.375 414.265625 L 170.753906 414.265625 C 167.421875 414.265625 164.714844 416.96875 164.714844 420.300781 C 164.714844 423.632812 167.414062 426.335938 170.753906 426.335938 Z M 170.753906 426.335938 "/><path style=" stroke:none;fill-rule:nonzero;fill:#3a322b;fill-opacity:1;" d="M 332.136719 487.429688 L 570.375 487.429688 C 573.707031 487.429688 576.410156 484.726562 576.410156 481.394531 C 576.410156 478.0625 573.707031 475.359375 570.375 475.359375 L 332.136719 475.359375 C 328.804688 475.359375 326.097656 478.0625 326.097656 481.394531 C 326.097656 484.726562 328.804688 487.429688 332.136719 487.429688 Z M 332.136719 487.429688 "/><path style=" stroke:none;fill-rule:nonzero;fill:#3a322b;fill-opacity:1;" d="M 338.175781 603.589844 C 338.175781 549.726562 294.097656 505.90625 239.914062 505.90625 C 185.734375 505.90625 141.664062 549.726562 141.664062 603.589844 C 141.664062 657.453125 185.742188 701.269531 239.914062 701.269531 C 294.097656 701.269531 338.175781 657.453125 338.175781 603.589844 Z M 153.738281 603.589844 C 153.738281 556.382812 192.402344 517.976562 239.914062 517.976562 C 287.4375 517.976562 326.097656 556.382812 326.097656 603.589844 C 326.097656 650.792969 287.4375 689.199219 239.914062 689.199219 C 192.402344 689.199219 153.738281 650.792969 153.738281 603.589844 Z M 153.738281 603.589844 "/><path style=" stroke:none;fill-rule:nonzero;fill:#3a322b;fill-opacity:1;" d="M 307.433594 603.589844 C 307.433594 566.570312 277.148438 536.453125 239.914062 536.453125 C 202.683594 536.453125 172.398438 566.570312 172.398438 603.589844 C 172.398438 640.605469 202.683594 670.722656 239.914062 670.722656 C 277.148438 670.722656 307.433594 640.605469 307.433594 603.589844 Z M 184.480469 603.589844 C 184.480469 573.230469 209.351562 548.523438 239.921875 548.523438 C 270.492188 548.523438 295.363281 573.222656 295.363281 603.589844 C 295.363281 633.953125 270.492188 658.652344 239.921875 658.652344 C 209.351562 658.652344 184.480469 633.949219 184.480469 603.589844 Z M 184.480469 603.589844 "/><path style=" stroke:none;fill-rule:nonzero;fill:#3a322b;fill-opacity:1;" d="M 266.851562 576.046875 C 264.292969 573.90625 260.488281 574.242188 258.34375 576.796875 L 225.085938 616.460938 L 214.191406 600.226562 C 212.332031 597.457031 208.589844 596.707031 205.8125 598.578125 C 203.046875 600.4375 202.304688 604.1875 204.164062 606.957031 L 219.53125 629.867188 C 220.585938 631.441406 222.328125 632.433594 224.222656 632.53125 C 224.332031 632.535156 224.441406 632.535156 224.542969 632.535156 C 226.324219 632.535156 228.019531 631.75 229.175781 630.382812 L 267.601562 584.558594 C 269.746094 582 269.40625 578.191406 266.851562 576.046875 Z M 266.851562 576.046875 "/><path style=" stroke:none;fill-rule:nonzero;fill:#3a322b;fill-opacity:1;" d="M 583.558594 604.433594 C 576.554688 607.144531 569.316406 609.558594 562.039062 611.605469 C 554.257812 613.789062 546.316406 615.59375 538.324219 616.980469 C 539.023438 615.21875 539.613281 613.414062 540.089844 611.566406 C 541.632812 605.597656 543.746094 597.425781 538.921875 591.527344 C 534.011719 585.523438 524.367188 584.882812 510.246094 589.628906 C 499.726562 593.164062 490.910156 599.09375 483.847656 605.277344 C 484.128906 599.941406 483.21875 594.789062 479.738281 591.171875 C 472.148438 583.253906 457.996094 587.402344 436.125 597.203125 C 413.289062 607.433594 390.714844 619.96875 369.03125 634.46875 C 366.257812 636.320312 365.511719 640.070312 367.363281 642.839844 C 368.527344 644.582031 370.441406 645.519531 372.394531 645.519531 C 373.546875 645.519531 374.710938 645.1875 375.746094 644.5 C 396.871094 630.382812 418.851562 618.171875 441.070312 608.21875 C 465.917969 597.082031 470.273438 598.765625 471.03125 599.53125 C 471.136719 599.640625 473.496094 602.304688 469.589844 615.734375 C 468.054688 620.988281 465.394531 624.949219 463.957031 627.074219 C 460.460938 632.265625 462.234375 635.289062 464.34375 636.917969 C 465.621094 637.902344 467.289062 638.34375 468.90625 638.117188 C 471.667969 637.734375 472.855469 636.128906 475.222656 632.933594 C 480.296875 626.089844 493.773438 607.910156 514.097656 601.070312 C 524.796875 597.472656 529.078125 598.6875 529.5625 599.175781 C 530.480469 600.460938 528.910156 606.550781 528.390625 608.554688 C 527.230469 613.050781 525.121094 617.253906 522.140625 621.03125 C 520.625 622.949219 520.417969 625.59375 521.613281 627.726562 C 522.808594 629.855469 525.171875 631.050781 527.609375 630.761719 C 540.320312 629.222656 553 626.6875 565.308594 623.222656 C 572.957031 621.074219 580.566406 618.53125 587.925781 615.683594 C 591.035156 614.476562 592.582031 610.980469 591.375 607.875 C 590.167969 604.777344 586.671875 603.234375 583.558594 604.433594 Z M 583.558594 604.433594 "/><path style=" stroke:none;fill-rule:nonzero;fill:#3a322b;fill-opacity:1;" d="M 562.089844 651.042969 L 408.386719 666.316406 C 405.070312 666.648438 402.644531 669.601562 402.976562 672.921875 C 403.285156 676.035156 405.910156 678.359375 408.980469 678.359375 C 409.179688 678.359375 409.378906 678.351562 409.582031 678.328125 L 563.285156 663.050781 C 566.597656 662.71875 569.027344 659.769531 568.695312 656.449219 C 568.363281 653.128906 565.421875 650.671875 562.089844 651.042969 Z M 562.089844 651.042969 "/></g></svg>